<svg width="1049" height="1115" viewBox="0 0 1049 1115" fill="none" xmlns="http://www.w3.org/2000/svg">
<g opacity="0.3" filter="url(#filter0_f_1_42)">
<path fill-rule="evenodd" clip-rule="evenodd" d="M567.982 338.687C550.207 394.528 509.523 437.246 472.674 482.784C440.925 522.019 407.091 556.995 366.777 587.337C321.874 621.134 279.526 668.169 223.394 670.406C167.08 672.65 119.788 630.881 73.2658 599.033C29.5248 569.088 -1.62045 527.828 -39.3261 490.553C-90.932 439.536 -179.993 410.591 -190.088 338.687C-199.847 269.176 -129.006 215.224 -85.7347 159.994C-47.3848 111.045 -4.57843 67.6906 48.0905 34.6831C102.174 0.78925 160.267 -43.0223 223.394 -33.7362C286.417 -24.4652 313.215 56.004 371.282 82.2257C438.977 112.795 539.87 70.6304 585.1 129.602C628.376 186.025 589.559 270.905 567.982 338.687Z" fill="#B1DEFF"/>
</g>
<defs>
<filter id="filter0_f_1_42" x="-635" y="-479" width="1683.69" height="1593.49" filterUnits="userSpaceOnUse" color-interpolation-filters="sRGB">
<feFlood flood-opacity="0" result="BackgroundImageFix"/>
<feBlend mode="normal" in="SourceGraphic" in2="BackgroundImageFix" result="shape"/>
<feGaussianBlur stdDeviation="222" result="effect1_foregroundBlur_1_42"/>
</filter>
</defs>
</svg>
