<svg width="15" height="12" viewBox="0 0 15 12" fill="none" xmlns="http://www.w3.org/2000/svg">
<path d="M8.632 0.0119991H12.904C13.2133 0.0119991 13.4747 0.118666 13.688 0.332C13.9013 0.545333 14.008 0.806666 14.008 1.116V4.988C14.008 6.82267 13.624 8.268 12.856 9.324C12.2373 10.188 11.2613 10.972 9.928 11.676C9.66133 11.8147 9.37867 11.8307 9.08 11.724C8.78133 11.628 8.56267 11.4413 8.424 11.164L8.056 10.46C7.91733 10.204 7.89067 9.932 7.976 9.644C8.072 9.356 8.248 9.13733 8.504 8.988C9.13333 8.62533 9.59733 8.26267 9.896 7.9C10.1307 7.612 10.3013 7.31867 10.408 7.02C10.472 6.84933 10.472 6.68933 10.408 6.54C10.344 6.38 10.232 6.252 10.072 6.156C9.912 6.06 9.73067 6.012 9.528 6.012H8.632C8.32267 6.012 8.06133 5.90533 7.848 5.692C7.63467 5.47867 7.528 5.22267 7.528 4.924V1.116C7.528 0.806666 7.63467 0.545333 7.848 0.332C8.072 0.118666 8.33333 0.0119991 8.632 0.0119991ZM1.096 0.0119991H5.368C5.67733 0.0119991 5.93867 0.118666 6.152 0.332C6.36533 0.545333 6.472 0.806666 6.472 1.116V4.988C6.472 6.82267 6.088 8.268 5.32 9.324C4.70133 10.188 3.72533 10.972 2.392 11.676C2.12533 11.8147 1.84267 11.8307 1.544 11.724C1.256 11.628 1.03733 11.4413 0.888 11.164L0.52 10.46C0.381333 10.204 0.354667 9.932 0.44 9.644C0.536 9.356 0.712 9.13733 0.968 8.988C1.61867 8.61467 2.08267 8.252 2.36 7.9C2.59467 7.612 2.76533 7.31867 2.872 7.02C2.936 6.84933 2.936 6.68933 2.872 6.54C2.808 6.38 2.696 6.252 2.536 6.156C2.376 6.06 2.19467 6.012 1.992 6.012H1.096C0.797333 6.012 0.541333 5.90533 0.328 5.692C0.114667 5.47867 0.00800002 5.22267 0.00800002 4.924V1.116C0.00800002 0.806666 0.114667 0.545333 0.328 0.332C0.541333 0.118666 0.797333 0.0119991 1.096 0.0119991Z" fill="white"/>
</svg>
