<svg width="1007" height="1450" viewBox="0 0 1007 1450" fill="none" xmlns="http://www.w3.org/2000/svg">
<g opacity="0.9" filter="url(#filter0_f_1_80)">
<g opacity="0.3" filter="url(#filter1_f_1_80)">
<path fill-rule="evenodd" clip-rule="evenodd" d="M1041.55 589.207C1027.56 633.171 995.527 666.803 966.516 702.655C941.52 733.545 914.881 761.082 883.142 784.971C847.789 811.579 814.449 848.611 770.255 850.372C725.919 852.139 688.686 819.253 652.059 794.179C617.621 770.603 593.1 738.119 563.414 708.772C522.784 668.606 452.666 645.817 444.718 589.207C437.035 534.48 492.809 492.003 526.876 448.52C557.069 409.983 590.771 375.849 632.238 349.862C674.818 323.177 720.555 288.684 770.255 295.995C819.874 303.294 840.972 366.648 886.689 387.293C939.986 411.36 1019.42 378.164 1055.03 424.592C1089.1 469.015 1058.54 535.842 1041.55 589.207Z" fill="url(#paint0_linear_1_80)" fill-opacity="0.65"/>
</g>
<g opacity="0.3" filter="url(#filter2_f_1_80)">
<path fill-rule="evenodd" clip-rule="evenodd" d="M1116.37 743.918C1102.38 787.882 1070.35 821.514 1041.34 857.367C1016.34 888.257 989.701 915.794 957.962 939.682C922.609 966.291 889.268 1003.32 845.075 1005.08C800.739 1006.85 763.506 973.965 726.878 948.891C692.441 925.315 667.92 892.831 638.234 863.484C597.604 823.318 527.485 800.529 519.538 743.918C511.854 689.192 567.628 646.715 601.696 603.232C631.889 564.694 665.591 530.561 707.057 504.574C749.638 477.889 795.375 443.396 845.075 450.707C894.694 458.006 915.792 521.36 961.508 542.004C1014.81 566.072 1094.24 532.875 1129.85 579.304C1163.92 623.727 1133.36 690.553 1116.37 743.918Z" fill="url(#paint1_linear_1_80)"/>
</g>
</g>
<defs>
<filter id="filter0_f_1_80" x="389" y="240" width="811.275" height="820.152" filterUnits="userSpaceOnUse" color-interpolation-filters="sRGB">
<feFlood flood-opacity="0" result="BackgroundImageFix"/>
<feBlend mode="normal" in="SourceGraphic" in2="BackgroundImageFix" result="shape"/>
<feGaussianBlur stdDeviation="27.5" result="effect1_foregroundBlur_1_80"/>
</filter>
<filter id="filter1_f_1_80" x="1.52588e-05" y="-149" width="1514.46" height="1443.44" filterUnits="userSpaceOnUse" color-interpolation-filters="sRGB">
<feFlood flood-opacity="0" result="BackgroundImageFix"/>
<feBlend mode="normal" in="SourceGraphic" in2="BackgroundImageFix" result="shape"/>
<feGaussianBlur stdDeviation="222" result="effect1_foregroundBlur_1_80"/>
</filter>
<filter id="filter2_f_1_80" x="74.8197" y="5.71167" width="1514.46" height="1443.44" filterUnits="userSpaceOnUse" color-interpolation-filters="sRGB">
<feFlood flood-opacity="0" result="BackgroundImageFix"/>
<feBlend mode="normal" in="SourceGraphic" in2="BackgroundImageFix" result="shape"/>
<feGaussianBlur stdDeviation="222" result="effect1_foregroundBlur_1_80"/>
</filter>
<linearGradient id="paint0_linear_1_80" x1="1070.46" y1="572.72" x2="444" y2="572.72" gradientUnits="userSpaceOnUse">
<stop stop-color="#F7B73B"/>
<stop offset="1" stop-color="#FFD06D"/>
</linearGradient>
<linearGradient id="paint1_linear_1_80" x1="852.929" y1="449.712" x2="850.784" y2="991.842" gradientUnits="userSpaceOnUse">
<stop stop-color="#47C2FF"/>
<stop offset="1" stop-color="#63CBFE" stop-opacity="0.65"/>
</linearGradient>
</defs>
</svg>
