<svg width="18" height="14" viewBox="0 0 18 14" fill="none" xmlns="http://www.w3.org/2000/svg">
<path fill-rule="evenodd" clip-rule="evenodd" d="M17.2748 2.14204C16.6664 2.41234 16.0116 2.59438 15.3248 2.67657C16.0259 2.25622 16.5643 1.59095 16.8175 0.798253C16.1622 1.18771 15.4346 1.4696 14.6617 1.6224C14.0422 0.962642 13.1591 0.550018 12.1832 0.550018C10.3082 0.550018 8.7879 2.07033 8.7879 3.94533C8.7879 4.21122 8.81824 4.47049 8.87616 4.71928C6.05399 4.57806 3.55232 3.226 1.87756 1.17171C1.58519 1.67315 1.41805 2.25623 1.41805 2.87848C1.41805 4.05622 2.01657 5.0955 2.92842 5.70451C2.37127 5.68685 1.84832 5.53405 1.38991 5.27975V5.32222C1.38991 6.96775 2.56103 8.33967 4.11334 8.65244C3.82869 8.72967 3.5286 8.7716 3.21914 8.7716C3.00014 8.7716 2.78721 8.75008 2.57979 8.71036C3.01172 10.0591 4.26614 11.041 5.7517 11.0686C4.58995 11.9788 3.12591 12.5222 1.53499 12.5222C1.26028 12.5222 0.989977 12.5062 0.72464 12.4742C2.2273 13.4373 4.01184 14 5.92932 14C12.1744 14 15.5896 8.82621 15.5896 4.33975C15.5896 4.19247 15.5868 4.04574 15.5796 3.90066C16.2438 3.42073 16.8197 2.82276 17.2748 2.14204Z" fill="white"/>
</svg>
