<svg width="18" height="13" viewBox="0 0 18 13" fill="none" xmlns="http://www.w3.org/2000/svg">
<path fill-rule="evenodd" clip-rule="evenodd" d="M17.1768 2.4416C16.9805 1.6876 16.4022 1.09385 15.6679 0.892342C14.3371 0.526123 9.00013 0.526123 9.00013 0.526123C9.00013 0.526123 3.66321 0.526123 2.3323 0.892342C1.59795 1.09385 1.01962 1.6876 0.823354 2.4416C0.466797 3.80815 0.466797 6.65946 0.466797 6.65946C0.466797 6.65946 0.466797 9.51066 0.823354 10.8773C1.01962 11.6313 1.59795 12.2251 2.3323 12.4267C3.66321 12.7928 9.00013 12.7928 9.00013 12.7928C9.00013 12.7928 14.3371 12.7928 15.6679 12.4267C16.4022 12.2251 16.9805 11.6313 17.1768 10.8773C17.5335 9.51066 17.5335 6.65946 17.5335 6.65946C17.5335 6.65946 17.5335 3.80815 17.1768 2.4416Z" fill="#DADADA"/>
<path fill-rule="evenodd" clip-rule="evenodd" d="M7.3999 9.59139V4.25806L11.6666 6.92483L7.3999 9.59139Z" fill="#646464"/>
</svg>
